<svg xmlns="http://www.w3.org/2000/svg" viewBox="0 0 230 150">
  <g id="HolidayExtras-logo-stacked-transparent" fill="none" fill-rule="evenodd">
    <g id="holiday-extras-stacked-web" fill-rule="nonzero" transform="translate(24 28)">
      <g id="Group">
        <g fill="#FFF" transform="translate(1.02 .263)">
          <path id="Path" d="M29.009 43.021h-1.21c-3.176 0-5.13-2.874-5.864-8.622-.728-5.75-2.204-9.152-4.42-10.213-4.473 2.85-5.479 3.709-6.698 6.711-1.65 4.058-1.591 8.322-2.04 11.346 0 0-.15.325-.354.521-.206.192-.433.311-1.558.66-1.126.346-.714.408-1.872.408-1.16 0-1.767-1.107-2.114-1.663-.409-.65-.486-1.362-.79-2.419C1.35 37.33.856 32.491.6 25.231c-.167-4.939-.617-2.117-.466-9.904C.28 7.543.127 8.348.307 4.618c.046-1.007.226-1.775.528-2.305.303-.53.706-.795 1.21-.795 2.22 0 3.95-.348 4.892 5.2.667 3.928 1.106 6.812 1.246 10.227.142 3.518.194.69.009 4.52 1.517-2.167 2.908-3.856 4.179-5.067 2.063-2.016 3.89-1.741 5.604-1.741 3.831 0 6.794 3.908 8.888 11.723 1.668 6.152 2.385 11.697 2.146 16.641z"/>
          <path id="Shape" d="M66.206 24.844c0 5.023-3.209 9.6-9.624 13.731-5.808 3.705-11.43 5.562-16.863 5.562-2.901 0-4.929-.752-6.077-2.252-1.15-1.503-1.721-3.755-1.721-6.76 0-3.805.95-7.37 2.844-10.703 1.897-3.334 4.483-6.104 7.764-8.31 1.17-.986 2.06-1.71 2.67-2.181 1.125-.89 2.179-1.341 3.16-1.341 4.122 0 7.965 1.012 11.525 3.028 4.217 2.395 6.322 5.47 6.322 9.226zm-6.394.557c0-1.505-.7-2.741-2.106-3.704-1.406-.963-2.904-1.447-4.498-1.447-3.229 0-6.51 1.435-9.833 4.305-3.33 2.869-4.99 5.88-4.99 9.03 0 1.27.468 2.163 1.407 2.68.936.52 2.082.776 3.44.776 2.811 0 6.184-1.222 10.12-3.668 4.308-2.682 6.46-5.339 6.46-7.972z"/>
          <path id="Path" d="M76.48 44.425l-1.792.144a6.9 6.9 0 0 1-2.008-.287c-.62-.192-1.074-.528-1.363-1.006-.046-.19-.285-3.132-.717-8.819-.573-7.983-.956-6.096-1.146-8.963-.385-5.88-.575-8.034-.575-8.893V4.983 3.766c0-.864.083-1.604.25-2.225.168-.621.54-1.03 1.111-1.218 1.388.527 2.44 1.36 3.159 2.51.572.957 1.002 2.27 1.289 3.945.287 1.674.479 3.466.575 5.376.094 1.916.143 3.992.143 6.24v-.286V24.202c0 3.06.18.333.536 6.454.36 6.119.539 10.709.539 13.769z"/>
          <path id="Shape" d="M86.263 5.914c0 .766-.192 1.449-.574 2.045-.384.598-.957.897-1.721.897-1.003 0-1.854-.634-2.548-1.902-.691-1.265-1.039-2.498-1.039-3.692 0-.764.168-1.479.503-2.152.334-.67.86-1.003 1.577-1.003 1.006 0 1.888.681 2.656 2.045.763 1.36 1.146 2.616 1.146 3.762zm3.873 21.807c0 3.348-.083 6.208-.252 8.576-.167 2.37-.537 4.867-1.112 7.498-2.294-.284-3.848-1.193-4.658-2.727-.145-.285-.646-2.126-1.509-5.524a18.048 18.048 0 0 1-.427-2.692 31.893 31.893 0 0 1-.146-3.05c0-1.242.096-3.135.288-5.669.189-2.535.284-4.45.284-5.742.48 0 1.317-.214 2.514-.645.667-.239 1.145-.36 1.434-.36.62 0 1.373.994 2.257 2.979.885 1.984 1.328 3.384 1.328 4.198v3.158zM122.407 9.915c0 5.312-.027 4.738-.073 8.037-.19 13.154-.288 20.376-.288 21.666-.283-.045-1.123-.18-2.506-.392-1.391-.216-2.441-.323-3.158-.323a83.004 83.004 0 0 1-6.06 3.656c-1.935 1.053-4.028 1.578-6.275 1.578-2.725 0-5.068-1.098-7.03-3.3-1.958-2.198-2.937-4.684-2.937-7.457 0-3.347 1.456-6.906 4.373-10.686 3.108-4.017 6.288-6.024 9.54-6.024 1.003 0 1.874.07 2.616.213.74.146 1.803.408 3.19.792.288-.957.514-1.856.683-7.574.167-5.715 1.084-7.025 2.76-8.794 1.82.718 3.133 1.805 3.947 3.263.809 1.46 1.218 3.242 1.218 5.345zm-7.531 16.65c0-1-.298-1.85-.898-2.545-.595-.688-1.375-1.04-2.33-1.04-2.15 0-4.278 1.268-6.38 3.802-2.11 2.533-3.156 4.9-3.156 7.1 0 .956.26 1.792.79 2.509.526.72 1.265 1.077 2.22 1.077 1.723 0 3.777-1.387 6.169-4.161 2.388-2.77 3.585-5.018 3.585-6.742zM152.168 35.919c0 1.624-.11 3.118-.325 4.478a17.776 17.776 0 0 1-1.11 3.974c-1.818-.475-3.277-1.423-4.371-2.849-.433-.522-1.296-2.065-2.586-4.629-.192.479-1.913 1.78-5.162 3.909-3.252 2.13-5.215 3.191-5.882 3.191-2.535 0-4.388-.836-5.557-2.51-1.171-1.673-1.757-3.823-1.757-6.453 0-3.73 2.056-8.965 6.165-15.709 4.352-7.12 8.059-10.683 11.117-10.683 3.203 0 5.584 2.268 7.138 6.802 1.55 4.537 2.33 11.365 2.33 20.479zm-8.104-17.67c0-.287-.014-.634-.038-1.04-.023-.407-.103-.944-.25-1.616-.43 0-.993.217-1.683.648a9.48 9.48 0 0 0-1.76 1.363c-1.052 1.1-2.583 3.656-4.588 7.671-2.008 4.018-3.013 6.72-3.013 8.106v.786c3.346-.763 6.073-2.722 8.178-5.878 2.103-3.156 3.154-6.5 3.154-10.04z"/>
          <path id="Path" d="M182.2 16.453c0 1.434-1.554 6.335-4.66 14.702-2.728 7.315-.657 3.515-4.12 11.858-3.468 8.344-3.245 7.237-4.298 8.954-.477.765-1.027 1.351-1.646 1.759-.624.407-1.362.61-2.223.61-1.103 0-2.057-.239-2.87-.717-.813-.479-1.217-1.243-1.217-2.296 0-1.433.986-3.54 1.792-5.234.805-1.695 1.323-2.216 2.15-3.994.828-1.779.784-2.021.784-3.983 0-2.771-1.812-5.761-3.914-8.963-1.96-2.726-3.92-5.477-5.881-8.25-2.151-3.34-3.228-6.452-3.228-9.321 3.97.67 7.696 4.015 11.187 10.038 2.247 3.924 4.04 6.526 5.38 7.819a92.894 92.894 0 0 0 3.73-9.896c.958-3.014 1.887-6.407 2.795-10.186l1.076-.715c1.672.333 2.988 1.315 3.945 2.94.813 1.386 1.218 3.011 1.218 4.875z"/>
        </g>
        <g fill="#FDDC06" transform="translate(.141 49.863)">
          <path id="Shape" d="M33.56 34.014c0 2.438-2.151 4.493-6.455 6.167-3.491 1.338-6.717 2.006-9.683 2.006-4.779 0-8.7-1.028-11.761-3.09C2.076 36.652.283 33.154.283 28.602c0-4.363 1.828-8.328 5.487-11.897 3.656-3.571 7.71-5.356 12.155-5.356 2.916 0 5.664 1.104 8.248 3.307 2.582 2.206 3.873 4.748 3.873 7.625 0 3.359-4.686 5.54-14.056 6.548-5.31.43-8.583.694-9.825.792v1.363c0 1.248 1.098 2.329 3.297 3.24 1.868.766 3.538 1.15 5.02 1.15 1.866 0 4.182-.502 6.957-1.508a674.125 674.125 0 0 0 8.534-3.154c.861 0 1.672.333 2.439 1.002.765.672 1.149 1.437 1.149 2.299zM23.449 21.606c0-1.147-.729-2.09-2.187-2.833-1.458-.74-2.832-1.113-4.124-1.113-1.625 0-3.179.529-4.661 1.58-.86.623-2.057 1.772-3.585 3.442 2.162.526 4.613.787 7.352.787 1.104 0 2.295-.07 3.565-.213a39.097 39.097 0 0 0 3.641-.574v-1.076z"/>
          <path id="Path" d="M62.036 38.024v3.157c-2.06-.493-3.966-1.61-5.722-3.342-4.32-4.25-8.053-6.476-8.556-6.685-1.155 1.938-2.913 4.307-5.271 7.108-1.155 1.36-2.31 2.721-3.462 4.082a48.205 48.205 0 0 0-1.584-1.736c-1.304-1.365-1.956-2.46-1.956-3.285 0-1.366 1.63-4.07 4.895-8.12 1.505-1.857 2.259-3.547 2.259-5.078 0-1.82-3.594-4.175-5.476-7.068-1.883-2.89-2.826-4.77-2.826-5.636 0-.787.152-1.502.452-2.141.3-.64.8-1.065 1.507-1.27.704.248 1.682 1.219 2.937 2.907 3.162 4.25 7.772 6.664 8.524 7.24 1.556-3.546 2.435-5.507 2.635-5.877 1.557-2.684 3.189-4.022 4.894-4.022.703 0 1.243.277 1.62.832.378.558.565 1.498.565 2.818 0 2.104-.54 4.215-1.62 6.345a319.074 319.074 0 0 1-3.352 6.404c0 .537 3.192 3.03 6.922 7.49 1.745 2.102 2.615 4.062 2.615 5.877zM93.95 12.5l-.504-.145-.43-.072c-.335.333-.5.667-.5 1.002 0 .238.118.596.358 1.07-.43 2.006-2.653 3.067-6.67 3.187-4.015.118-6.669.966-7.96 2.538-.192.764-.287 1.62-.287 2.578V25.946c0 1-.277 3.505-.833 7.51-.258 1.862-.385 3.34-.385 4.438 0 1.381.214 2.718.646 4.006h-1.436c-1.769 0-3.083-.574-3.943-1.717-1.004-1.338-1.507-3.747-1.507-7.23 0-1.145.071-2.5.215-4.078.333-3.626.502-5.89.502-6.796 0-2.91-2.006-4.531-6.024-4.869-4.017-.334-6.024-2.119-6.024-5.365v-1.002c.047-.286.166-.882.36-1.79 2.244.384 3.513.599 3.797.648 1.53.238 2.846.358 3.946.358 2.44 0 4.16-.72 5.163-2.161.811-1.198 1.012-2.584.984-3.502-.026-.917-.185-1.671-.185-1.768 0-1.296.094-1.226.288-2.232 1.96.43 3.441.242 4.445 1.874 1.194 1.92 1.265 2.33 1.415 2.876.15.546.154 1.053.154 1.677 0 .239.07.54.212.9.142.358.239.588.287.684.52.288 1.08.48 1.677.576.593.098 1.27.142 2.033.142.475 0 1.188-.022 2.142-.072.95-.044 1.617-.07 1.999-.07 1.567 0 2.816.251 3.742.756.93.499 1.704 1.421 2.322 2.761z"/>
          <path id="Path" d="M124.254 16.012c0 .48-.192.958-.574 1.434-.386.479-.815.72-1.292.72-.285 0-1.073-.216-2.365-.647-.718-.24-1.268-.359-1.651-.359-3.107 0-6.358 2.128-9.754 6.384-1.53 1.914-4.112 5.881-7.744 11.904-2.582 4.302-4.424 6.454-5.523 6.454-2.247 0-3.778-3.13-4.588-9.396-.43-4.112-.862-8.246-1.291-12.406l-2.295-8.963c.573-.195 1.195-.531 1.863-1.012a29.42 29.42 0 0 1 1.582-1.086c2.387 1.77 3.941 3.156 4.659 4.161.476.672.716 1.51.716 2.517 0 1.292.06 2.284.18 2.978.12.697.561 1.832 1.326 3.411l6.599-8.174c2.388-2.39 5.642-3.588 9.752-3.588 2.39 0 4.518.36 6.384 1.078 2.676 1.054 4.016 2.581 4.016 4.59z"/>
          <path id="Shape" d="M146.928 33.468c0 1.623-.108 3.118-.32 4.478a17.871 17.871 0 0 1-1.112 3.973c-1.819-.474-3.276-1.423-4.373-2.848-.432-.522-1.291-2.065-2.584-4.628-.192.478-1.914 1.78-5.164 3.909-3.251 2.129-5.213 3.191-5.88 3.191-2.538 0-4.388-.837-5.558-2.511-1.171-1.674-1.758-3.822-1.758-6.454 0-3.729 2.055-8.964 6.168-15.708 4.35-7.12 8.055-10.682 11.117-10.682 3.204 0 5.582 2.269 7.134 6.802 1.554 4.536 2.33 11.362 2.33 20.478zm-8.102-17.67c0-.288-.012-.635-.035-1.042-.025-.406-.107-.942-.252-1.614-.431 0-.992.217-1.685.647a9.722 9.722 0 0 0-1.76 1.363c-1.05 1.1-2.58 3.656-4.586 7.672-2.008 4.016-3.013 6.72-3.013 8.105v.787c3.347-.765 6.074-2.722 8.176-5.88 2.103-3.155 3.155-6.5 3.155-10.039z"/>
          <path id="Path" d="M183.775 30.425c0 5.021-3.825 8.511-11.474 10.472-4.495 1.149-10.375 1.72-17.64 1.72-3.445 0-4.662-.217-6.098-.644-2.725-.813-4.087-2.534-4.087-5.164l.214-2.368c1.77 0 4.422.19 7.962.574 3.54.382 4.972.574 6.74.574 2.965 0 5.428-.285 7.387-.861 2.438-.715 4.54-1.957 6.31-3.73l-.716-.643c-.908 0-1.911-.156-3.011-.469a69.281 69.281 0 0 1-3.155-.965c-4.592-.908-7.773-2.222-9.539-3.945-1.532-1.482-2.295-3.416-2.295-5.81 0-3.155 1.673-5.856 5.02-8.102 2.965-2.01 6.141-3.012 9.539-3.012 2.104 0 3.896.48 5.377 1.433 1.482.96 2.462 2.416 2.94 4.377-4.973.571-7.7.908-8.175 1.003-3.155.671-5.496 1.937-7.027 3.801 8.605 2.056 12.98 3.108 13.124 3.155 5.735 2.056 8.604 4.926 8.604 8.604z"/>
        </g>
      </g>
    </g>
  </g>
</svg>